<?xml version="1.0" standalone="no"?>
<!DOCTYPE svg PUBLIC "-//W3C//DTD SVG 20010904//EN"
 "http://www.w3.org/TR/2001/REC-SVG-20010904/DTD/svg10.dtd">
<svg version="1.0" xmlns="http://www.w3.org/2000/svg"
 width="801.000000pt" height="801.000000pt" viewBox="0 0 801.000000 801.000000"
 preserveAspectRatio="xMidYMid meet">
<metadata>
Created by potrace 1.11, written by Peter Selinger 2001-2013
</metadata>
<g transform="translate(0.000000,801.000000) scale(0.100000,-0.100000)"
fill="#000000" stroke="none">
<path d="M3749 8006 c-2 -2 -42 -7 -89 -11 -47 -4 -98 -8 -115 -10 -120 -10
-346 -52 -518 -95 -386 -98 -750 -248 -1078 -447 -122 -74 -319 -206 -356
-238 -6 -5 -26 -21 -44 -35 -153 -115 -442 -389 -577 -546 -220 -256 -422
-564 -571 -868 -58 -119 -189 -438 -197 -480 -2 -11 -8 -32 -13 -46 -11 -28
-42 -134 -66 -225 -25 -96 -71 -320 -80 -395 -2 -15 -14 -94 -20 -138 -20
-129 -27 -643 -12 -810 11 -114 23 -211 32 -262 2 -14 11 -65 20 -115 12 -73
39 -194 70 -318 52 -211 167 -511 290 -757 156 -314 305 -533 554 -815 14 -17
69 -80 122 -140 130 -147 320 -321 489 -445 41 -30 77 -57 80 -61 11 -12 190
-129 298 -192 251 -149 667 -333 862 -383 8 -2 49 -13 90 -25 142 -39 267 -67
420 -93 19 -4 46 -8 60 -11 14 -2 50 -7 80 -10 30 -4 66 -8 80 -10 83 -13 215
-18 435 -19 225 0 309 4 455 20 68 7 170 21 210 29 26 5 128 24 170 31 14 3
43 10 65 16 22 5 51 12 64 15 14 2 28 6 31 8 4 2 20 6 37 9 50 9 278 80 338
106 11 5 46 18 79 30 60 21 86 32 241 103 341 154 733 416 1013 674 193 179
346 348 498 548 307 406 541 886 673 1385 34 128 76 326 86 410 4 30 8 57 10
60 2 3 6 37 10 77 4 40 9 85 12 100 3 15 8 1008 10 2205 l3 2177 -2124 0
c-1168 0 -2126 -2 -2127 -3z"/>
</g>
</svg>
