<?xml version="1.0" encoding="iso-8859-1"?>
<!-- Generator: Adobe Illustrator 17.1.0, SVG Export Plug-In . SVG Version: 6.00 Build 0)  -->
<!DOCTYPE svg PUBLIC "-//W3C//DTD SVG 1.1//EN" "http://www.w3.org/Graphics/SVG/1.1/DTD/svg11.dtd">
<svg xmlns="http://www.w3.org/2000/svg" xmlns:xlink="http://www.w3.org/1999/xlink" version="1.1" id="Capa_1" x="0px" y="0px" viewBox="0 0 297.229 297.229" style="enable-background:new 0 0 297.229 297.229;" xml:space="preserve" width="128px" height="128px">
<g>
	<path d="M285.622,56.751C249.027,20.155,200.371,0,148.616,0S48.204,20.154,11.608,56.751c-4.687,4.687-4.687,12.284,0,16.971   c4.688,4.686,12.285,4.686,16.971,0C60.641,41.658,103.271,24,148.616,24c45.344,0,87.974,17.658,120.035,49.722   c2.344,2.343,5.414,3.515,8.485,3.515c3.07,0,6.143-1.172,8.485-3.515C290.308,69.035,290.308,61.438,285.622,56.751z" fill="#6e6e6e"/>
	<path d="M148.616,53.306c-37.517,0-72.787,14.609-99.314,41.138c-4.687,4.687-4.687,12.284,0,16.971   c4.688,4.686,12.285,4.686,16.971,0c21.994-21.995,51.238-34.108,82.344-34.108c31.105,0,60.349,12.113,82.343,34.108   c2.344,2.343,5.414,3.515,8.485,3.515c3.07,0,6.143-1.172,8.485-3.515c4.687-4.687,4.687-12.284,0-16.971   C221.402,67.915,186.132,53.306,148.616,53.306z" fill="#6e6e6e"/>
	<path d="M104.009,149.149c11.913-11.915,27.755-18.477,44.606-18.477c16.852,0,32.694,6.562,44.61,18.478   c2.344,2.343,5.414,3.515,8.485,3.515c3.071,0,6.143-1.172,8.485-3.515c4.687-4.687,4.687-12.284,0-16.971   c-16.449-16.448-38.319-25.507-61.581-25.507c-23.263,0-45.132,9.059-61.579,25.508c-4.686,4.687-4.685,12.284,0.002,16.971   C91.724,153.837,99.322,153.837,104.009,149.149z" fill="#6e6e6e"/>
	<path d="M225.47,284.772l-70.551-122.197c-1.429-2.476-4.069-4-6.928-4c-2.858,0-5.499,1.524-6.928,4L70.248,285.229   c-1.43,2.476-1.43,5.524-0.001,8c1.43,2.476,4.07,4,6.929,4h141.631c0.008,0,0.015,0,0.02,0c4.419,0,8-3.582,8-8   C226.826,287.579,226.327,286.046,225.47,284.772z M139.282,198.23c0-0.871,0.498-1.707,0.755-2.492   c0.346-1.054,1.084-2.008,1.804-2.817c1.466-1.647,3.683-2.69,6.061-2.69c2.38,0,4.556,1.046,6.021,2.695   c0.717,0.807,0.942,1.756,1.286,2.805c0.259,0.787,0.072,1.626,0.072,2.5v50c0,4.418-3.582,8-8,8s-8-3.582-8-8V198.23z    M147.992,280.329c-4.417,0-8-3.583-8-8s3.583-8,8-8c4.417,0,8,3.583,8,8S152.409,280.329,147.992,280.329z" fill="#6e6e6e"/>
</g>
<g>
</g>
<g>
</g>
<g>
</g>
<g>
</g>
<g>
</g>
<g>
</g>
<g>
</g>
<g>
</g>
<g>
</g>
<g>
</g>
<g>
</g>
<g>
</g>
<g>
</g>
<g>
</g>
<g>
</g>
</svg>
